<svg width="40" height="40" viewBox="0 0 40 40" fill="none" xmlns="http://www.w3.org/2000/svg">
<g clip-path="url(#clip0_3113_756)">
<path d="M13.3332 25C13.3332 23.159 11.8408 21.6666 9.99984 21.6666C8.15889 21.6666 6.6665 23.159 6.6665 25V28.3333C6.6665 30.1742 8.15889 31.6666 9.99984 31.6666C11.8408 31.6666 13.3332 30.1742 13.3332 28.3333V25Z" stroke="white" stroke-width="2" stroke-linecap="round" stroke-linejoin="round"/>
<path d="M33.3332 25C33.3332 23.159 31.8408 21.6666 29.9998 21.6666C28.1589 21.6666 26.6665 23.159 26.6665 25V28.3333C26.6665 30.1742 28.1589 31.6666 29.9998 31.6666C31.8408 31.6666 33.3332 30.1742 33.3332 28.3333V25Z" stroke="white" stroke-width="2" stroke-linecap="round" stroke-linejoin="round"/>
<path d="M6.6665 25V20C6.6665 16.4637 8.07126 13.0724 10.5717 10.5719C13.0722 8.07138 16.4636 6.66663 19.9998 6.66663C23.5361 6.66663 26.9274 8.07138 29.4279 10.5719C31.9284 13.0724 33.3332 16.4637 33.3332 20V25" stroke="white" stroke-width="2" stroke-linecap="round" stroke-linejoin="round"/>
<path d="M30 31.6666C30 32.9927 28.9464 34.2645 27.0711 35.2022C25.1957 36.1398 22.6522 36.6666 20 36.6666" stroke="white" stroke-width="2" stroke-linecap="round" stroke-linejoin="round"/>
</g>
<defs>
<clipPath id="clip0_3113_756">
<rect width="40" height="40" fill="white"/>
</clipPath>
</defs>
</svg>
