<svg width="40" height="40" viewBox="0 0 40 40" fill="none" xmlns="http://www.w3.org/2000/svg">
<path d="M19.9829 2.58752C21.0044 2.58752 22.0039 2.73676 22.7573 3.01819L31.0747 6.13538H31.0757C33.2952 6.96215 35.0503 9.50773 35.0503 11.8668V24.2496C35.0503 25.3368 34.7061 26.5896 34.1235 27.7487C33.5775 28.8349 32.8401 29.8025 32.0308 30.4557L31.8677 30.5826L24.7007 35.9323L24.6948 35.9371C23.4121 36.9262 21.7235 37.4332 19.9995 37.4332C18.2768 37.4332 16.5844 36.9264 15.2642 35.9479H15.2632L8.09912 30.5992C7.22641 29.9485 6.42508 28.921 5.84229 27.7594C5.25944 26.5977 4.9165 25.3448 4.9165 24.2662V11.8668C4.9165 9.50761 6.67144 6.96201 8.89111 6.13538H8.89209L17.2085 3.01819C17.9619 2.73667 18.9613 2.58755 19.9829 2.58752ZM20.0005 4.08557C19.2019 4.08775 18.375 4.19499 17.7417 4.43127L17.7407 4.43225L9.42432 7.54846H9.42334C8.59584 7.86005 7.85461 8.52257 7.32373 9.29065C6.79265 10.059 6.43311 10.99 6.43311 11.8834V24.2662C6.43311 25.1607 6.74368 26.1894 7.20068 27.1012C7.65757 28.0128 8.29292 28.8727 9.00049 29.401L16.1675 34.7506C17.2293 35.5445 18.6279 35.9253 20.0015 35.9254C21.3754 35.9254 22.7777 35.5444 23.8472 34.7516L23.8491 34.7506L31.0151 29.401L31.0161 29.4C31.7309 28.864 32.3664 28.005 32.8218 27.0944C33.2771 26.1837 33.5835 25.1597 33.5835 24.2662V11.8668C33.5835 10.9808 33.2231 10.054 32.6929 9.28674C32.1624 8.51919 31.4218 7.85398 30.5972 7.53381L30.5923 7.53186L22.2749 4.41467L22.2661 4.41174C21.628 4.18655 20.7999 4.08339 20.0005 4.08557Z" fill="#FAFAFA" stroke="#FAFAFA"/>
<path d="M24.4038 14.77C24.6919 14.4822 25.1754 14.482 25.4634 14.77C25.7513 15.058 25.7511 15.5415 25.4634 15.8296L18.2964 22.9966C18.1451 23.1478 17.9573 23.2163 17.7661 23.2163C17.5751 23.2162 17.388 23.1477 17.2368 22.9966L14.5532 20.313C14.2654 20.0249 14.2652 19.5414 14.5532 19.2534C14.8412 18.9654 15.3247 18.9655 15.6128 19.2534L17.7661 21.4067L18.1206 21.0532L24.4038 14.77Z" fill="#FAFAFA" stroke="#FAFAFA"/>
</svg>
